<?xml version="1.0" encoding="utf-8"?>
<!-- Generator: Adobe Illustrator 21.1.0, SVG Export Plug-In . SVG Version: 6.00 Build 0)  -->
<svg version="1.1" id="图层_1" xmlns="http://www.w3.org/2000/svg" xmlns:xlink="http://www.w3.org/1999/xlink" x="0px" y="0px"
	 viewBox="0 0 207.4 200" style="enable-background:new 0 0 207.4 200;" xml:space="preserve">
<style type="text/css">
	.st0{fill:#666666;}
	.st1{fill:none;stroke:#666666;stroke-width:10;stroke-linecap:round;stroke-miterlimit:10;}
</style>
<path class="st0" d="M89.5,14.8C40.1,14.8,0,54.9,0,104.3s40.1,89.5,89.5,89.5s89.5-40.1,89.5-89.5l0,0
	C179,54.9,138.9,14.9,89.5,14.8z M89.5,184.7c-44.4,0-80.4-36-80.4-80.4s36-80.4,80.4-80.4c44.4,0,80.4,36,80.4,80.4
	C169.9,148.7,133.9,184.7,89.5,184.7z"/>
<path class="st0" d="M202.9,0c-2.5,0-4.6,2-4.6,4.6c0,0,0,0,0,0v119.6l-20.2,41.6c-3.8-0.8-7.7,0.9-9.7,4.3l-7.5,13.1
	c-2.4,4.3-0.9,9.8,3.4,12.3l5.9,3.4c4.3,2.4,9.8,0.9,12.3-3.4l7.6-13.3c2.4-4.3,0.9-9.8-3.4-12.3h-0.5l20.7-42.3
	c0.1-0.7,0.1-1.3,0-2V4.6C207,2.2,205.3,0.2,202.9,0z M174.9,191.3L169,188l7.4-13.1l1.9,1.1l3.8,2.1L174.9,191.3z"/>
<circle class="st0" cx="89.5" cy="104.3" r="24.1"/>
<path class="st1" d="M46.7,71.5c-18.1,18.1-18.1,47.6,0,65.7"/>
</svg>
